<svg width="40" height="40" viewBox="0 0 40 40" fill="none" xmlns="http://www.w3.org/2000/svg">
<circle cx="20" cy="20" r="20" fill="#F2F2F2"/>
<g clip-path="url(#clip0_4118_3891)">
<path d="M29.6912 11.9867C29.4469 11.6879 29.081 11.5234 28.6608 11.5234C28.4323 11.5234 28.1903 11.5715 27.9416 11.6666L11.012 18.1291C10.1136 18.472 9.99255 18.9865 10.0003 19.2627C10.0081 19.5389 10.1581 20.0458 11.0746 20.3374C11.08 20.3391 11.0855 20.3407 11.091 20.3423L14.6027 21.3472L16.5018 26.7778C16.7607 27.5182 17.342 27.9781 18.0188 27.9781C18.4456 27.9781 18.8654 27.7992 19.2328 27.4611L21.4049 25.4611L24.5554 27.9979C24.5557 27.9982 24.5562 27.9984 24.5565 27.9987L24.5864 28.0228C24.5891 28.0249 24.592 28.0272 24.5948 28.0293C24.9449 28.3009 25.3272 28.4444 25.7006 28.4445H25.7007C26.4302 28.4445 27.0111 27.9045 27.1804 27.0689L29.9543 13.372C30.0656 12.8223 29.9723 12.3303 29.6912 11.9867ZM15.7775 21.1563L22.5525 17.6952L18.3339 22.1777C18.2648 22.2511 18.2158 22.341 18.1917 22.4388L17.3783 25.7338L15.7775 21.1563ZM18.4389 26.599C18.4108 26.6248 18.3826 26.6478 18.3544 26.669L19.1091 23.6124L20.4819 24.7179L18.4389 26.599ZM28.8057 13.1393L26.0318 26.8364C26.0051 26.9675 25.9198 27.2725 25.7006 27.2725C25.5922 27.2725 25.4561 27.2134 25.3168 27.1062L21.7469 24.2317C21.7464 24.2313 21.7458 24.2308 21.7452 24.2305L19.621 22.52L25.7216 16.0376C25.9169 15.8301 25.9346 15.5122 25.7636 15.2843C25.5924 15.0563 25.2822 14.9846 25.0284 15.1143L14.9945 20.2403L11.4351 19.222L28.3596 12.7614C28.5025 12.7068 28.6023 12.6953 28.6608 12.6953C28.6966 12.6953 28.7604 12.6996 28.7841 12.7287C28.8152 12.7667 28.8549 12.8963 28.8057 13.1393Z" fill="black"/>
</g>
<defs>
<clipPath id="clip0_4118_3891">
<rect width="20" height="20" fill="white" transform="translate(10 10)"/>
</clipPath>
</defs>
</svg>
