<svg width="40" height="40" viewBox="0 0 40 40" fill="none" xmlns="http://www.w3.org/2000/svg">
<circle cx="20" cy="20" r="20" fill="#F2F2F2"/>
<path d="M22.7501 14.6248C22.1167 14.6247 21.5086 14.8732 21.0567 15.3169C20.6047 15.7606 20.345 16.364 20.3334 16.9973L20.3101 18.3098C20.3087 18.3802 20.2925 18.4496 20.2624 18.5134C20.2323 18.5771 20.1891 18.6338 20.1356 18.6797C20.0821 18.7255 20.0195 18.7596 19.9519 18.7796C19.8843 18.7996 19.8133 18.805 19.7434 18.7956L18.4426 18.6189C16.7309 18.3856 15.0909 17.5973 13.5176 16.2864C13.0193 19.0448 13.9926 20.9556 16.3368 22.4298L17.7926 23.3448C17.8618 23.3882 17.9192 23.448 17.96 23.5188C18.0007 23.5896 18.0235 23.6694 18.0263 23.751C18.0291 23.8327 18.0118 23.9137 17.976 23.9872C17.9402 24.0606 17.887 24.1242 17.8209 24.1723L16.4943 25.1414C17.2834 25.1906 18.0326 25.1556 18.6543 25.0323C22.5859 24.2473 25.2001 21.2889 25.2001 16.4089C25.2001 16.0106 24.3568 14.6248 22.7501 14.6248ZM18.6668 16.9664C18.6813 16.1631 18.9325 15.382 19.3889 14.7208C19.8453 14.0596 20.4866 13.5477 21.2325 13.2492C21.9785 12.9508 22.7959 12.879 23.5824 13.0429C24.3689 13.2068 25.0896 13.5991 25.6543 14.1706C26.2468 14.1664 26.7509 14.3164 27.8784 13.6331C27.5993 14.9998 27.4618 15.5931 26.8668 16.4089C26.8668 22.7773 22.9526 25.8739 18.9809 26.6664C16.2576 27.2098 12.2976 26.3173 11.1626 25.1323C11.7409 25.0873 14.0909 24.8348 15.4493 23.8406C14.3001 23.0831 9.72593 20.3914 12.7318 13.1548C14.1426 14.8023 15.5734 15.9239 17.0234 16.5189C17.9884 16.9148 18.2251 16.9064 18.6676 16.9673L18.6668 16.9664Z" fill="#121212"/>
</svg>
